<svg xmlns="http://www.w3.org/2000/svg" viewBox="0 0 224.54 32.28"><defs><style>.cls-1{fill:#c73435;}</style></defs><g id="Ebene_2" data-name="Ebene 2"><g id="Ebene_1-2" data-name="Ebene 1"><path d="M18.32,21.11H9.78l-1.18,4H.92L10.06.79h8.21l9.14,24.34H19.54Zm-1.56-5.26L14.07,7.1l-2.65,8.75Z"/><path d="M29.41,7.49h6.3v2.58a8.65,8.65,0,0,1,2.76-2.29,7.44,7.44,0,0,1,3.35-.68,6.51,6.51,0,0,1,3.34.74,5.55,5.55,0,0,1,2,2.23,10.13,10.13,0,0,1,2.9-2.35A7.42,7.42,0,0,1,53.3,7.1a5.81,5.81,0,0,1,4.43,1.68q1.59,1.68,1.59,5.27V25.13H52.55v-10a2.77,2.77,0,0,0-.47-1.77,2,2,0,0,0-1.68-.92,2.37,2.37,0,0,0-1.92.87A4.23,4.23,0,0,0,47.75,16v9.1H41V15.41a5.87,5.87,0,0,0-.14-1.57,2.06,2.06,0,0,0-.75-1.07,1.94,1.94,0,0,0-1.25-.41,2.39,2.39,0,0,0-1.91.88,4.45,4.45,0,0,0-.75,2.89v9H29.41Z"/><path d="M63.6.79h6.76v4.6H63.6Zm0,6.7h6.76V25.13H63.6Z"/><path d="M87,7.49h6.32V24.15l0,.78a7.37,7.37,0,0,1-.71,3.16,6.65,6.65,0,0,1-1.87,2.43,7.39,7.39,0,0,1-3,1.35,18.83,18.83,0,0,1-4.12.41q-5.31,0-7.3-1.59a5.22,5.22,0,0,1-2-4.27q0-.33,0-.9l6.56.75a2.15,2.15,0,0,0,.76,1.26,3.21,3.21,0,0,0,1.88.52,2.83,2.83,0,0,0,2.18-.78,4,4,0,0,0,.72-2.73V21.87a6.77,6.77,0,0,1-2,1.71,7,7,0,0,1-3.37.83,6.69,6.69,0,0,1-5.71-3.09,9.84,9.84,0,0,1-1.54-5.79c0-2.74.66-4.84,2-6.28A6.79,6.79,0,0,1,81.05,7.1a7.4,7.4,0,0,1,3.4.69A7.55,7.55,0,0,1,87,10.1ZM80.59,16a4.22,4.22,0,0,0,.81,2.84,2.88,2.88,0,0,0,4.26,0A4.18,4.18,0,0,0,86.51,16a4.35,4.35,0,0,0-.89-3,2.81,2.81,0,0,0-2.19-1,2.55,2.55,0,0,0-2.07.94A5,5,0,0,0,80.59,16Z"/><path d="M96.53,16.36a8.8,8.8,0,0,1,2.72-6.65A10.16,10.16,0,0,1,106.6,7.1q5.3,0,8,3.07a8.9,8.9,0,0,1,2.18,6.09,8.87,8.87,0,0,1-2.7,6.67,10.31,10.31,0,0,1-7.46,2.59,10.5,10.5,0,0,1-6.87-2.15A8.67,8.67,0,0,1,96.53,16.36Zm6.77,0a5.35,5.35,0,0,0,1,3.49,3,3,0,0,0,2.4,1.13,3,3,0,0,0,2.4-1.11,5.47,5.47,0,0,0,.94-3.57,5.18,5.18,0,0,0-.95-3.41,2.94,2.94,0,0,0-2.34-1.13,3.06,3.06,0,0,0-2.44,1.14A5.27,5.27,0,0,0,103.3,16.34Z"/><path d="M131.79.79h12.5q4.08,0,6.12,1.94a7.3,7.3,0,0,1,2,5.53A7.49,7.49,0,0,1,150.22,14c-1.47,1.38-3.73,2.07-6.76,2.07h-4.12v9h-7.55Zm7.55,10.37h1.84a4.79,4.79,0,0,0,3.06-.75,2.47,2.47,0,0,0,.88-1.94,2.7,2.7,0,0,0-.77-1.94,3.94,3.94,0,0,0-2.87-.8h-2.14Z"/><path d="M156.18.79h6.75v4.6h-6.75Zm0,6.7h6.75V25.13h-6.75Z"/><path d="M166.48,7.49h16.36v4l-8.9,9.06h9.45v4.62H165.82V20.74l8.45-8.63h-7.79Z"/><path d="M185.39,7.49h16.36v4l-8.9,9.06h9.44v4.62H184.73V20.74l8.45-8.63h-7.79Z"/><path d="M211.23,13.21l-6.46-.69a7.24,7.24,0,0,1,1-2.66,5.68,5.68,0,0,1,2-1.68,8.16,8.16,0,0,1,2.55-.8,20.5,20.5,0,0,1,3.52-.28,27.64,27.64,0,0,1,4.88.34,6.16,6.16,0,0,1,3.07,1.42A5,5,0,0,1,223.2,11a7.74,7.74,0,0,1,.49,2.62v7.78a9.91,9.91,0,0,0,.16,2,9.32,9.32,0,0,0,.69,1.8H218.2a6.43,6.43,0,0,1-.5-1,7.79,7.79,0,0,1-.23-1.12,8.77,8.77,0,0,1-2.64,1.82,11,11,0,0,1-4.17.73,7,7,0,0,1-4.79-1.46,4.62,4.62,0,0,1-1.63-3.6,4.68,4.68,0,0,1,1.18-3.3q1.17-1.31,4.35-1.93c2.53-.51,4.17-.86,4.93-1.07a20.46,20.46,0,0,0,2.39-.81,2.38,2.38,0,0,0-.52-1.74,2.58,2.58,0,0,0-1.81-.5,4.65,4.65,0,0,0-2.49.54A2.83,2.83,0,0,0,211.23,13.21Zm5.86,3.55c-.93.33-1.9.62-2.91.88a6.62,6.62,0,0,0-2.61,1.08,1.73,1.73,0,0,0,0,2.55,2.37,2.37,0,0,0,1.63.5,4.17,4.17,0,0,0,2.1-.55,3.29,3.29,0,0,0,1.38-1.33,4.5,4.5,0,0,0,.41-2.05Z"/><path class="cls-1" d="M17.4,20.32H8.86l-1.18,4H0L9.15,0h8.2L26.5,24.34H18.62Zm-1.56-5.26L13.16,6.31,10.5,15.06Z"/><path class="cls-1" d="M28.49,6.71H34.8V9.28A8.76,8.76,0,0,1,37.55,7a7.58,7.58,0,0,1,3.35-.68,6.38,6.38,0,0,1,3.34.75,5.52,5.52,0,0,1,2,2.22,10.31,10.31,0,0,1,2.9-2.35,7.61,7.61,0,0,1,3.24-.62A5.79,5.79,0,0,1,56.81,8c1.06,1.13,1.59,2.88,1.59,5.27V24.34H51.63v-10a2.82,2.82,0,0,0-.46-1.77,2,2,0,0,0-1.69-.92,2.39,2.39,0,0,0-1.92.87,4.29,4.29,0,0,0-.73,2.77v9.1H40.06V14.63a6.09,6.09,0,0,0-.13-1.58A2.23,2.23,0,0,0,39.18,12a2,2,0,0,0-1.25-.41,2.4,2.4,0,0,0-1.92.88,4.45,4.45,0,0,0-.75,2.89v9H28.49Z"/><path class="cls-1" d="M62.69,0h6.75V4.6H62.69Zm0,6.71h6.75V24.34H62.69Z"/><path class="cls-1" d="M86,6.71h6.32V23.36l0,.78a7.33,7.33,0,0,1-.7,3.16,6.78,6.78,0,0,1-1.88,2.43,7.41,7.41,0,0,1-3,1.35,18.93,18.93,0,0,1-4.13.41q-5.31,0-7.29-1.59a5.17,5.17,0,0,1-2-4.27c0-.22,0-.52,0-.89l6.55.74a2.17,2.17,0,0,0,.77,1.27,3.22,3.22,0,0,0,1.87.51,2.85,2.85,0,0,0,2.19-.78,4,4,0,0,0,.72-2.72V21.08a6.57,6.57,0,0,1-5.36,2.54,6.71,6.71,0,0,1-5.72-3.08,10,10,0,0,1-1.54-5.8q0-4.11,2-6.27a6.77,6.77,0,0,1,5.22-2.16,7.22,7.22,0,0,1,3.39.7A7.41,7.41,0,0,1,86,9.31Zm-6.36,8.55a4.21,4.21,0,0,0,.81,2.83,2.75,2.75,0,0,0,2.15.92,2.71,2.71,0,0,0,2.11-1,4.18,4.18,0,0,0,.86-2.88,4.31,4.31,0,0,0-.9-2.94,2.81,2.81,0,0,0-2.19-1,2.57,2.57,0,0,0-2.07.93A5,5,0,0,0,79.67,15.26Z"/><path class="cls-1" d="M95.61,15.57a8.85,8.85,0,0,1,2.72-6.65,10.2,10.2,0,0,1,7.36-2.61c3.53,0,6.19,1,8,3.07a8.89,8.89,0,0,1,2.17,6.09,8.85,8.85,0,0,1-2.7,6.67,10.3,10.3,0,0,1-7.46,2.6,10.46,10.46,0,0,1-6.87-2.16A8.66,8.66,0,0,1,95.61,15.57Zm6.77,0a5.28,5.28,0,0,0,1,3.48,3.12,3.12,0,0,0,4.79,0,5.47,5.47,0,0,0,.94-3.57,5.18,5.18,0,0,0-.94-3.41A3,3,0,0,0,105.79,11a3.1,3.1,0,0,0-2.45,1.13A5.3,5.3,0,0,0,102.38,15.56Z"/><path class="cls-1" d="M130.87,0h12.5q4.08,0,6.12,1.94a7.32,7.32,0,0,1,2,5.53,7.52,7.52,0,0,1-2.21,5.76q-2.22,2.08-6.77,2.08h-4.12v9h-7.55Zm7.55,10.38h1.85a4.75,4.75,0,0,0,3-.76,2.42,2.42,0,0,0,.88-1.93,2.72,2.72,0,0,0-.76-1.95A4,4,0,0,0,140.56,5h-2.14Z"/><path class="cls-1" d="M155.26,0H162V4.6h-6.75Zm0,6.71H162V24.34h-6.75Z"/><path class="cls-1" d="M165.57,6.71h16.35v4L173,19.72h9.45v4.62H164.9V20l8.45-8.64h-7.78Z"/><path class="cls-1" d="M184.48,6.71h16.35v4l-8.9,9.06h9.45v4.62H183.81V20l8.45-8.64h-7.78Z"/><path class="cls-1" d="M210.31,12.42l-6.46-.68a7.22,7.22,0,0,1,1.05-2.67,5.79,5.79,0,0,1,2-1.68,8.16,8.16,0,0,1,2.55-.8A20.5,20.5,0,0,1,213,6.31a27.76,27.76,0,0,1,4.89.34,6.33,6.33,0,0,1,3.07,1.42,5,5,0,0,1,1.36,2.12,7.66,7.66,0,0,1,.5,2.61v7.79a9.86,9.86,0,0,0,.15,1.95,9.32,9.32,0,0,0,.69,1.8h-6.34a7.44,7.44,0,0,1-.5-1,9.5,9.5,0,0,1-.23-1.12A9,9,0,0,1,213.91,24a11.1,11.1,0,0,1-4.17.73A7,7,0,0,1,205,23.28a4.66,4.66,0,0,1-1.63-3.61,4.68,4.68,0,0,1,1.18-3.3,8,8,0,0,1,4.35-1.93c2.53-.51,4.17-.86,4.93-1.07a22.34,22.34,0,0,0,2.39-.8,2.38,2.38,0,0,0-.52-1.75,2.58,2.58,0,0,0-1.81-.49,4.66,4.66,0,0,0-2.49.53A2.83,2.83,0,0,0,210.31,12.42ZM216.17,16c-.93.33-1.9.63-2.91.88a6.79,6.79,0,0,0-2.6,1.08,1.67,1.67,0,0,0-.57,1.24,1.69,1.69,0,0,0,.56,1.31,2.32,2.32,0,0,0,1.63.5,4.21,4.21,0,0,0,2.1-.54,3.31,3.31,0,0,0,1.38-1.34,4.47,4.47,0,0,0,.41-2.05Z"/></g></g></svg>